<?xml version="1.0" encoding="UTF-8" standalone="no"?>
<!-- Created with Inkscape (http://www.inkscape.org/) -->

<svg
   xmlns:dc="http://purl.org/dc/elements/1.1/"
   xmlns:cc="http://creativecommons.org/ns#"
   xmlns:rdf="http://www.w3.org/1999/02/22-rdf-syntax-ns#"
   xmlns:svg="http://www.w3.org/2000/svg"
   xmlns="http://www.w3.org/2000/svg"
   xmlns:sodipodi="http://sodipodi.sourceforge.net/DTD/sodipodi-0.dtd"
   xmlns:inkscape="http://www.inkscape.org/namespaces/inkscape"
   width="210mm"
   height="297mm"
   viewBox="0 0 210 297"
   version="1.1"
   id="svg8"
   inkscape:version="0.92.4 (5da689c313, 2019-01-14)"
   sodipodi:docname="drawing.svg">
  <defs
     id="defs2">
    <clipPath
       id="clipPath26"
       clipPathUnits="userSpaceOnUse">
      <path
         inkscape:connector-curvature="0"
         id="path24"
         d="M 0,612 H 453.125 V 0 H 0 Z" />
    </clipPath>
    <clipPath
       id="clipPath54"
       clipPathUnits="userSpaceOnUse">
      <path
         inkscape:connector-curvature="0"
         id="path52"
         d="M 0,612 H 453.125 V 0 H 0 Z" />
    </clipPath>
    <clipPath
       id="clipPath66"
       clipPathUnits="userSpaceOnUse">
      <path
         inkscape:connector-curvature="0"
         id="path64"
         d="M 0,612 H 453.125 V 0 H 0 Z" />
    </clipPath>
  </defs>
  <sodipodi:namedview
     id="base"
     pagecolor="#ffffff"
     bordercolor="#666666"
     borderopacity="1.0"
     inkscape:pageopacity="0.0"
     inkscape:pageshadow="2"
     inkscape:zoom="0.35"
     inkscape:cx="-94.285714"
     inkscape:cy="560"
     inkscape:document-units="mm"
     inkscape:current-layer="layer1"
     showgrid="false"
     inkscape:window-width="2736"
     inkscape:window-height="1714"
     inkscape:window-x="-12"
     inkscape:window-y="-12"
     inkscape:window-maximized="1" />
  <metadata
     id="metadata5">
    <rdf:RDF>
      <cc:Work
         rdf:about="">
        <dc:format>image/svg+xml</dc:format>
        <dc:type
           rdf:resource="http://purl.org/dc/dcmitype/StillImage" />
        <dc:title></dc:title>
      </cc:Work>
    </rdf:RDF>
  </metadata>
  <g
     inkscape:label="Layer 1"
     inkscape:groupmode="layer"
     id="layer1">
    <g
       transform="matrix(0.35277777,0,0,-0.35277777,33.634717,243.05293)"
       inkscape:label="SECKC_Altered.ai"
       id="g18">
      <g
         id="g20">
        <g
           clip-path="url(#clipPath26)"
           id="g22">
          <g
             transform="translate(21.3393,43.8135)"
             id="g28">
            <path
               inkscape:connector-curvature="0"
               id="path30"
               style="fill:#231f20;fill-opacity:1;fill-rule:nonzero;stroke:none"
               d="m 0,0 c 0,0 9.018,-8.236 19.039,-8.236 4.005,0 8.346,1.559 8.346,6.346 0,9.464 -35.846,9.126 -35.844,33.62 0,14.698 12.355,24.381 28.163,24.381 17.15,0 25.606,-9.018 25.606,-9.018 l -8.236,-15.92 c 0,0 -8.018,7.015 -17.59,7.015 -4.006,0 -8.462,-1.78 -8.462,-6.235 0,-10.017 35.849,-8.236 35.85,-33.397 -10e-4,-13.246 -10.131,-24.718 -28.056,-24.718 -18.705,0 -29.059,11.357 -29.059,11.357 L 0,0" />
          </g>
          <g
             transform="translate(96.5907,98.5879)"
             id="g32">
            <path
               inkscape:connector-curvature="0"
               id="path34"
               style="fill:#231f20;fill-opacity:1;fill-rule:nonzero;stroke:none"
               d="m 0,0 49.873,0.003 0.002,-16.7 H 19.481 v -14.475 h 24.27 V -47.873 H 19.481 L 19.479,-62.901 H 51.434 V -79.602 H -0.001 Z" />
          </g>
          <g
             transform="translate(212.7235,99.9248)"
             id="g36">
            <path
               inkscape:connector-curvature="0"
               id="path38"
               style="fill:#231f20;fill-opacity:1;fill-rule:nonzero;stroke:none"
               d="M 0,0 C 19.704,0 29.832,-11.242 29.832,-11.242 L 20.818,-25.94 c 0,0 -8.911,8.125 -19.931,8.125 -15.251,0 -22.489,-11.245 -22.489,-22.707 0,-11.803 7.798,-23.934 22.489,-23.934 12.026,0 21.156,9.793 21.156,9.793 l 10.018,-14.249 c 0,0 -11.243,-13.361 -32.061,-13.361 -24.94,0 -41.755,17.705 -41.755,41.306 C -41.755,-17.815 -23.939,0 0,0" />
          </g>
          <g
             transform="translate(270.3056,98.5879)"
             id="g40">
            <path
               inkscape:connector-curvature="0"
               id="path42"
               style="fill:#231f20;fill-opacity:1;fill-rule:nonzero;stroke:none"
               d="m 0,0 19.484,0.003 v -30.73 H 27.5 L 43.98,0.003 H 64.908 L 43.423,-38.073 v -0.223 L 66.136,-79.602 H 44.312 L 27.5,-47.314 H 19.484 V -79.602 H 0 Z" />
          </g>
          <g
             transform="translate(395.5605,99.9248)"
             id="g44">
            <path
               inkscape:connector-curvature="0"
               id="path46"
               style="fill:#231f20;fill-opacity:1;fill-rule:nonzero;stroke:none"
               d="m 0,0 c 19.704,0 29.838,-11.242 29.838,-11.242 l -9.02,-14.698 c 0,0 -8.904,8.126 -19.928,8.125 -15.251,0 -22.493,-11.245 -22.493,-22.707 0,-11.803 7.796,-23.934 22.496,-23.934 12.019,0 21.151,9.793 21.151,9.793 l 10.023,-14.249 c 0,0 -11.249,-13.361 -32.067,-13.362 -24.939,0 -41.746,17.706 -41.746,41.307 C -41.746,-17.815 -23.937,0 0,0" />
          </g>
        </g>
      </g>
      <g
         id="g48">
        <g
           clip-path="url(#clipPath54)"
           id="g50">
          <g
             transform="translate(223.9667,592.5757)"
             id="g56">
            <path
               inkscape:connector-curvature="0"
               id="path58"
               style="fill:#231f20;fill-opacity:1;fill-rule:nonzero;stroke:none"
               d="m 0,0 c -2.482,1.433 -5.544,1.433 -8.026,0 l -200.241,-115.604 c -2.483,-1.435 -4.013,-4.087 -4.013,-6.954 v -216.82 c 0,-3.226 1.932,-6.139 4.907,-7.396 2.975,-1.255 6.409,-0.606 8.722,1.645 l 55.23,53.801 6.467,36.947 32.72,-22.586 c 2.168,2.779 6.85,9.302 9.665,17.129 0.582,1.624 0.595,3.395 0.03,5.021 -1.868,5.374 -3.673,11.696 -5.009,18.908 -0.673,3.635 -0.285,13.053 0.494,23.427 l -42.695,5.918 c -0.79,0.11 -1.373,0.783 -1.373,1.577 v 2.924 c 0,4.16 3.04,7.697 7.157,8.325 l 32.164,4.892 c 1.953,0.296 3.569,1.656 4.197,3.527 l 27.602,81.984 c 1.4,4.157 5.164,7.062 9.539,7.358 l 34.67,2.356 c 3.489,0.234 6.983,-0.261 10.269,-1.454 l 23.853,-8.666 c 4.712,-1.715 9.671,-2.657 14.682,-2.79 l 39.946,-1.069 c 2.631,-0.072 5.043,-1.475 6.402,-3.728 l 6.793,-11.246 c 1.373,-2.278 2.302,-4.801 2.728,-7.423 l 14.216,-87.431 c 0.188,-1.153 0.996,-2.106 2.102,-2.477 l 40.483,-13.607 c 2.826,-0.951 5.136,-3.032 6.381,-5.74 l 2.484,-5.428 c 0.132,-0.283 0.1,-0.612 -0.086,-0.857 -0.186,-0.247 -0.487,-0.376 -0.794,-0.336 l -56.62,7.856 c -0.075,-5.411 -0.351,-9.566 -0.846,-11.294 -1.157,-4.049 -3.085,-7.361 -3.892,-8.656 -0.241,-0.38 -0.297,-0.835 -0.157,-1.262 l 11.173,-34.406 c 0.186,-0.573 0.028,-1.193 -0.406,-1.602 l -6.966,-6.618 c -0.996,-0.942 -2.342,-1.43 -3.721,-1.335 l -10.381,0.732 c -0.401,0.021 -0.756,-0.253 -0.829,-0.644 -0.477,-2.552 -2.025,-11.517 -0.908,-15.739 0.184,-0.686 -0.15,-1.41 -0.8,-1.712 -2.102,-0.98 -4.121,-1.756 -4.902,-2.049 -0.193,-0.073 -0.296,-0.277 -0.239,-0.48 l 2.504,-8.615 c 0.091,-0.325 -0.084,-0.665 -0.402,-0.77 l -5.544,-1.847 c -0.212,-0.075 -0.368,-0.258 -0.395,-0.482 l -2.321,-19.428 c -0.059,-0.514 -0.388,-0.961 -0.862,-1.179 l -16.654,-7.619 c -0.509,-0.234 -1.08,-0.305 -1.627,-0.184 -2.893,0.625 -12.934,3.428 -30.254,14.771 -3.629,2.377 -8.351,2.278 -11.881,-0.242 -1.995,-1.43 -4.197,-2.962 -6.181,-4.324 l 45.659,-32.297 -48.333,-2.136 c -0.345,0.011 -0.681,-0.124 -0.921,-0.377 -0.239,-0.256 -0.355,-0.6 -0.32,-0.947 l 0.056,-0.539 c 0.106,-1.001 -0.217,-2 -0.89,-2.757 -0.679,-0.745 -1.638,-1.171 -2.647,-1.171 -0.297,0 -0.574,-0.146 -0.749,-0.388 -0.175,-0.239 -0.221,-0.552 -0.129,-0.829 l 0.458,-1.365 c 0.339,-1.021 0.244,-2.121 -0.256,-3.062 -0.504,-0.939 -1.365,-1.633 -2.391,-1.919 l -5.126,-1.419 c -1.157,-0.326 -1.906,-1.448 -1.753,-2.638 l 21.649,-64.498 c 0.768,-2.281 2.518,-4.101 4.771,-4.954 2.254,-0.851 4.768,-0.646 6.855,0.557 l 195.752,113.02 c 2.483,1.432 4.012,4.084 4.012,6.951 v 231.211 c 0,2.867 -1.529,5.519 -4.012,6.954 L 0,0" />
          </g>
        </g>
      </g>
      <g
         id="g60">
        <g
           clip-path="url(#clipPath66)"
           id="g62">
          <g
             transform="translate(288.9804,330.3633)"
             id="g68">
            <path
               inkscape:connector-curvature="0"
               id="path70"
               style="fill:#231f20;fill-opacity:1;fill-rule:nonzero;stroke:none"
               d="m 0,0 h 8.01 v -4.025 l 5.273,0.351 0.133,-1.997 L 8.01,-6.032 V -9.511 H 0 Z m -22.027,13.35 c -2.485,0 -4.505,2.021 -4.505,4.505 0,1.731 0.991,3.22 2.427,3.974 l -3.809,17.779 6.863,0.625 3.17,-1.723 -7.602,-0.691 3.314,-15.473 c 0.049,0.002 0.094,0.014 0.142,0.014 2.484,0 4.506,-2.02 4.506,-4.505 0,-2.484 -2.022,-4.505 -4.506,-4.505 m 19.19,21.859 3.003,-6.507 -5.063,2.752 0.916,-0.498 0.034,-0.584 -10.279,-0.604 0.449,-3.594 c 1.821,-0.125 3.263,-1.627 3.263,-3.48 0,-1.935 -1.568,-3.504 -3.504,-3.504 -1.935,0 -3.503,1.569 -3.503,3.504 0,1.306 0.722,2.432 1.782,3.035 l -0.74,5.912 10.14,0.596 -16.522,8.98 0.293,0.24 -5.413,2.165 c -0.828,-0.954 -2.033,-1.571 -3.391,-1.571 -2.484,0 -4.505,2.021 -4.505,4.506 0,0.299 0.032,0.59 0.088,0.873 l -5.691,4.174 0.14,2.38 6.407,-4.698 c 0.825,1.072 2.107,1.776 3.561,1.776 2.484,0 4.506,-2.021 4.506,-4.505 0,-0.403 -0.071,-0.786 -0.17,-1.157 l 6.048,-2.419 -0.138,-0.344 3.772,3.085 -23.53,16.02 -1.001,-17.021 -3.564,2.654 4.86,-11.962 4.272,-2.373 1.137,2.29 7.173,-3.563 -4.23,-8.519 -7.174,3.563 2.202,4.433 -4.97,2.761 -6.368,15.676 -9.49,7.065 0.029,-0.028 -9.371,-9.996 2.497,-2.615 -6.88,-6.569 -5.531,5.793 6.879,6.569 1.649,-1.728 9.144,9.753 -4.639,3.453 -2.727,-3.031 c 0.253,-0.484 0.409,-1.026 0.409,-1.61 0,-1.935 -1.569,-3.504 -3.504,-3.504 -1.936,0 -3.505,1.569 -3.505,3.504 0,1.936 1.569,3.505 3.505,3.505 0.618,0 1.191,-0.175 1.696,-0.456 l 2.514,2.793 -19.038,14.172 6.018,-8.597 c 0.461,0.159 0.948,0.264 1.462,0.264 2.485,0 4.506,-2.021 4.506,-4.505 0,-2.485 -2.021,-4.506 -4.506,-4.506 -2.484,0 -4.505,2.021 -4.505,4.506 0,1.247 0.51,2.377 1.331,3.193 l -5.449,7.785 -0.886,3.371 10.012,-38.046 13.477,-14.633 -1.131,6.504 c -1.357,0.484 -2.334,1.767 -2.334,3.289 0,1.936 1.569,3.505 3.504,3.505 1.935,0 3.505,-1.569 3.505,-3.505 0,-1.63 -1.119,-2.988 -2.627,-3.379 l 1.589,-9.135 -2.327,2.528 21.386,-23.221 -1.371,1.489 -6.64,28.775 -4.723,-6.073 -3.039,15.2 c -2.444,0.047 -4.418,2.042 -4.418,4.496 0,2.485 2.02,4.506 4.505,4.506 2.484,0 4.506,-2.021 4.506,-4.506 0,-1.814 -1.084,-3.372 -2.633,-4.085 l 2.184,-10.928 4.622,5.942 5.792,-25.098 -0.287,2.297 26.533,-28.535 3.144,2.621 c -0.466,1.244 -4.094,4.958 -8.326,8.847 -0.566,-0.392 -1.25,-0.624 -1.99,-0.624 -1.936,0 -3.504,1.569 -3.504,3.504 0,1.935 1.568,3.504 3.504,3.504 1.935,0 3.504,-1.569 3.504,-3.504 0,-0.457 -0.093,-0.89 -0.252,-1.29 4.59,-4.169 7.447,-7.24 8.557,-9.193 l 7.245,6.038 -26.657,17.764 c -0.823,-1.087 -2.115,-1.802 -3.581,-1.802 -2.484,0 -4.505,2.021 -4.505,4.506 0,2.484 2.021,4.505 4.505,4.505 2.484,0 4.506,-2.021 4.506,-4.505 0,-0.293 -0.033,-0.579 -0.087,-0.856 l 27.424,-18.275 1.531,1.276 -1.001,-10.013 18.022,1.502 L 11.912,1.157 11.895,1.009 -5.537,3.1 -6.894,11.236 c -2.221,0.275 -3.954,2.154 -3.954,4.45 0,2.484 2.021,4.505 4.506,4.505 2.485,0 4.505,-2.021 4.505,-4.505 0,-1.977 -1.287,-3.641 -3.06,-4.247 L -3.809,4.91 11.856,3.03 12.234,6.153 11.417,5.575 3.781,16.383 C 3.43,16.265 3.061,16.187 2.67,16.187 c -1.936,0 -3.505,1.568 -3.505,3.503 0,1.936 1.569,3.505 3.505,3.505 1.934,0 3.504,-1.569 3.504,-3.505 0,-0.815 -0.29,-1.556 -0.758,-2.151 l 7.296,-10.327 3.01,6.683 -0.581,-1.291 -0.729,-0.268 -3.28,8.902 c -0.15,-0.019 -0.298,-0.046 -0.452,-0.046 -1.936,0 -3.505,1.569 -3.505,3.505 0,1.935 1.569,3.504 3.505,3.504 1.934,0 3.504,-1.569 3.504,-3.504 0,-1.058 -0.479,-1.995 -1.22,-2.637 l 2.797,-7.591 0.668,9.777 0.056,4.081 z" />
          </g>
          <g
             transform="translate(267.244,350.6919)"
             id="g72">
            <path
               inkscape:connector-curvature="0"
               id="path74"
               style="fill:#231f20;fill-opacity:1;fill-rule:nonzero;stroke:none"
               d="m 0,0 0.021,-0.101 -1.823,-0.391 c -0.599,-0.457 -0.992,-1.172 -0.992,-1.982 0,-1.38 1.122,-2.503 2.503,-2.503 1.381,0 2.503,1.123 2.503,2.503 C 2.212,-1.193 1.242,-0.146 0,0" />
          </g>
          <g
             transform="translate(282.6386,348.5522)"
             id="g76">
            <path
               inkscape:connector-curvature="0"
               id="path78"
               style="fill:#231f20;fill-opacity:1;fill-rule:nonzero;stroke:none"
               d="m 0,0 c -1.381,0 -2.504,-1.123 -2.504,-2.503 0,-1.38 1.123,-2.503 2.504,-2.503 1.38,0 2.503,1.123 2.503,2.503 C 2.503,-1.123 1.38,0 0,0" />
          </g>
          <g
             transform="translate(255.1054,376.9199)"
             id="g80">
            <path
               inkscape:connector-curvature="0"
               id="path82"
               style="fill:#231f20;fill-opacity:1;fill-rule:nonzero;stroke:none"
               d="m 0,0 c 0,-1.38 1.123,-2.503 2.503,-2.503 1.381,0 2.503,1.123 2.503,2.503 0,1.38 -1.122,2.503 -2.503,2.503 C 1.123,2.503 0,1.38 0,0" />
          </g>
          <g
             transform="translate(209.5614,395.7778)"
             id="g84">
            <path
               inkscape:connector-curvature="0"
               id="path86"
               style="fill:#231f20;fill-opacity:1;fill-rule:nonzero;stroke:none"
               d="m 0,0 c -0.317,-0.419 -0.514,-0.936 -0.514,-1.502 0,-1.38 1.123,-2.503 2.503,-2.503 1.381,0 2.503,1.123 2.503,2.503 0,1.38 -1.122,2.503 -2.503,2.503 C 1.911,1.001 1.837,0.985 1.76,0.978 L 1.81,0.907 0.169,-0.241 Z" />
          </g>
          <g
             transform="translate(251.2675,346.3828)"
             id="g88">
            <path
               inkscape:connector-curvature="0"
               id="path90"
               style="fill:#231f20;fill-opacity:1;fill-rule:nonzero;stroke:none"
               d="m 0,0 c 0,-1.38 1.122,-2.503 2.503,-2.503 1.381,0 2.503,1.123 2.503,2.503 0,1.38 -1.122,2.503 -2.503,2.503 C 1.122,2.503 0,1.38 0,0" />
          </g>
          <g
             transform="translate(231.4091,378.9224)"
             id="g92">
            <path
               inkscape:connector-curvature="0"
               id="path94"
               style="fill:#231f20;fill-opacity:1;fill-rule:nonzero;stroke:none"
               d="m 0,0 c -1.381,0 -2.503,-1.123 -2.503,-2.503 0,-1.38 1.122,-2.503 2.503,-2.503 1.381,0 2.503,1.123 2.503,2.503 C 2.503,-1.123 1.381,0 0,0" />
          </g>
          <g
             transform="translate(123.4091,233.395)"
             id="g96">
            <path
               inkscape:connector-curvature="0"
               id="path98"
               style="fill:#231f20;fill-opacity:1;fill-rule:nonzero;stroke:none"
               d="M 0,0 C 0.178,0.26 0.362,0.529 0.551,0.805 0.362,0.529 0.179,0.261 0,0" />
          </g>
          <g
             transform="translate(125.7816,238.4185)"
             id="g100">
            <path
               inkscape:connector-curvature="0"
               id="path102"
               style="fill:#231f20;fill-opacity:1;fill-rule:nonzero;stroke:none"
               d="m 0,0 c -1.38,0 -2.503,-1.123 -2.503,-2.503 0,-0.663 0.263,-1.262 0.685,-1.71 0.852,1.248 1.795,2.637 2.732,4.034 C 0.63,-0.066 0.323,0 0,0" />
          </g>
          <g
             transform="translate(143.8036,299.1587)"
             id="g104">
            <path
               inkscape:connector-curvature="0"
               id="path106"
               style="fill:#231f20;fill-opacity:1;fill-rule:nonzero;stroke:none"
               d="M 0,0 C 1.381,0 2.503,1.123 2.503,2.503 2.503,3.883 1.381,5.006 0,5.006 -1.381,5.006 -2.503,3.883 -2.503,2.503 -2.503,1.123 -1.381,0 0,0" />
          </g>
          <g
             transform="translate(127.809,239.9082)"
             id="g108">
            <path
               inkscape:connector-curvature="0"
               id="path110"
               style="fill:#231f20;fill-opacity:1;fill-rule:nonzero;stroke:none"
               d="M 0,0 C -0.364,-0.548 -0.735,-1.104 -1.108,-1.661 -0.735,-1.104 -0.364,-0.548 0,0" />
          </g>
          <g
             transform="translate(123.3515,233.311)"
             id="g112">
            <path
               inkscape:connector-curvature="0"
               id="path114"
               style="fill:#231f20;fill-opacity:1;fill-rule:nonzero;stroke:none"
               d="M 0,0 C -0.162,-0.236 -0.317,-0.464 -0.469,-0.684 -0.318,-0.464 -0.161,-0.235 0,0" />
          </g>
          <g
             transform="translate(129.9535,296.4888)"
             id="g116">
            <path
               inkscape:connector-curvature="0"
               id="path118"
               style="fill:#231f20;fill-opacity:1;fill-rule:nonzero;stroke:none"
               d="M 0,0 C 1.38,0 2.503,1.123 2.503,2.503 2.503,3.883 1.38,5.006 0,5.006 -1.381,5.006 -2.503,3.883 -2.503,2.503 -2.503,1.123 -1.381,0 0,0" />
          </g>
          <g
             transform="translate(152.6474,314.3437)"
             id="g120">
            <path
               inkscape:connector-curvature="0"
               id="path122"
               style="fill:#231f20;fill-opacity:1;fill-rule:nonzero;stroke:none"
               d="M 0,0 C 0,1.38 -1.122,2.503 -2.503,2.503 -3.884,2.503 -5.006,1.38 -5.006,0 c 0,-1.38 1.122,-2.503 2.503,-2.503 C -1.122,-2.503 0,-1.38 0,0" />
          </g>
          <g
             transform="translate(131.2885,290.4814)"
             id="g124">
            <path
               inkscape:connector-curvature="0"
               id="path126"
               style="fill:#231f20;fill-opacity:1;fill-rule:nonzero;stroke:none"
               d="m 0,0 c 0,-1.38 1.123,-2.503 2.503,-2.503 1.38,0 2.503,1.123 2.503,2.503 0,1.38 -1.123,2.503 -2.503,2.503 C 1.123,2.503 0,1.38 0,0" />
          </g>
          <g
             transform="translate(138.1298,236.416)"
             id="g128">
            <path
               inkscape:connector-curvature="0"
               id="path130"
               style="fill:#231f20;fill-opacity:1;fill-rule:nonzero;stroke:none"
               d="m 0,0 c -1.38,0 -2.503,-1.123 -2.503,-2.503 0,-1.38 1.123,-2.503 2.503,-2.503 1.381,0 2.503,1.123 2.503,2.503 C 2.503,-1.123 1.381,0 0,0" />
          </g>
          <g
             transform="translate(121.2763,235.915)"
             id="g132">
            <path
               inkscape:connector-curvature="0"
               id="path134"
               style="fill:#231f20;fill-opacity:1;fill-rule:nonzero;stroke:none"
               d="M 0,0 C 0,0.592 0.122,1.155 0.33,1.674 L -1.29,2.657 -1.413,4.06 -0.5,-6.341 c 0,0 0.833,1.199 2.049,2.969 C 0.607,-2.545 0,-1.348 0,0" />
          </g>
          <g
             transform="translate(144.4706,245.9277)"
             id="g136">
            <path
               inkscape:connector-curvature="0"
               id="path138"
               style="fill:#231f20;fill-opacity:1;fill-rule:nonzero;stroke:none"
               d="m 0,0 c -1.38,0 -2.503,-1.123 -2.503,-2.503 0,-1.38 1.123,-2.503 2.503,-2.503 1.381,0 2.504,1.123 2.504,2.503 C 2.504,-1.123 1.381,0 0,0" />
          </g>
          <g
             transform="translate(125.1142,259.4438)"
             id="g140">
            <path
               inkscape:connector-curvature="0"
               id="path142"
               style="fill:#231f20;fill-opacity:1;fill-rule:nonzero;stroke:none"
               d="m 0,0 c 1.936,0 3.504,-1.569 3.504,-3.504 0,-1.935 -1.568,-3.504 -3.504,-3.504 -1.936,0 -3.504,1.569 -3.504,3.504 0,0.202 0.026,0.397 0.059,0.589 -0.992,0.486 -2.178,1.058 -3.401,1.634 L -7.049,1.027 C -5.357,0.24 -3.718,-0.552 -2.556,-1.121 -1.916,-0.435 -1.012,0 0,0 m -6.341,16.687 c -1.935,0 -3.504,1.569 -3.504,3.504 0,0.137 0.025,0.266 0.04,0.398 -3.153,1.508 -6.22,2.932 -8.199,3.79 l -0.06,2.184 c 2.135,-0.861 5.618,-2.483 9.05,-4.13 0.643,0.766 1.595,1.262 2.673,1.262 1.935,0 3.504,-1.569 3.504,-3.504 0,-1.935 -1.569,-3.504 -3.504,-3.504 m -12.506,38.469 c 3.042,-1.604 14.443,-8.53 20.637,-12.312 0.804,0.744 1.87,1.21 3.049,1.21 2.485,0 4.506,-2.021 4.506,-4.506 0,-2.485 -2.021,-4.506 -4.506,-4.506 -2.484,0 -4.505,2.021 -4.505,4.506 0,0.581 0.119,1.133 0.32,1.643 -6.669,4.07 -15.944,9.677 -19.438,11.663 z m 9.669,-24.619 c 0,-1.935 -1.569,-3.504 -3.504,-3.504 -1.935,0 -3.505,1.569 -3.505,3.504 0,1.524 0.979,2.808 2.338,3.29 l -0.316,6.327 c -1.54,0.368 -2.689,1.746 -2.689,3.399 0,1.935 1.569,3.504 3.504,3.504 1.936,0 3.505,-1.569 3.505,-3.504 0,-1.518 -0.971,-2.798 -2.321,-3.285 l 0.316,-6.337 c 1.532,-0.375 2.672,-1.747 2.672,-3.394 M 7.701,1.706 l 8.64,-3.979 -1.194,-2.591 8.462,-3.892 0.214,-2.304 -9.513,4.376 -1.319,-2.864 -8.64,3.978 z m 10.988,45.018 c 2.485,0 4.506,-2.021 4.506,-4.506 0,-0.646 -0.142,-1.257 -0.387,-1.813 l 8.341,-4.416 -0.956,-1.76 -8.614,4.561 c -0.785,-0.663 -1.785,-1.078 -2.89,-1.078 -2.484,0 -4.505,2.021 -4.505,4.506 0,2.485 2.021,4.506 4.505,4.506 m 9.345,2.002 c 1.936,0 3.504,-1.569 3.504,-3.504 0,-0.231 -0.025,-0.456 -0.067,-0.675 l 3.231,-2.02 -0.958,-1.763 -3.21,2.007 c -0.636,-0.649 -1.519,-1.054 -2.5,-1.054 -1.935,0 -3.504,1.569 -3.504,3.505 0,1.935 1.569,3.504 3.504,3.504 M 39.715,2.169 38.815,4.443 37.564,1.565 30.839,-0.323 27.082,1.311 28.12,3.698 7.139,13.337 6.101,10.951 -2.621,14.745 0.574,22.09 9.296,18.295 7.938,15.174 28.919,5.535 30.276,8.656 38.577,5.046 38.623,4.931 37.07,8.858 0.314,25.746 l -2.052,3.226 -2.69,-1.552 -4.756,8.237 6.937,4.005 4.756,-8.237 -2.511,-1.45 1.689,-2.656 34.319,-15.768 0.963,-2.435 -3.281,8.297 -21.55,10.775 c -0.827,-1.002 -2.063,-1.656 -3.461,-1.656 -2.484,0 -4.505,2.021 -4.505,4.506 0,2.484 2.021,4.505 4.505,4.505 2.485,0 4.506,-2.021 4.506,-4.505 0,-0.368 -0.057,-0.721 -0.141,-1.063 l 19.543,-9.772 -2.517,6.366 0.288,-0.727 -8.869,4.225 c -0.372,-0.372 -0.823,-0.674 -1.356,-0.852 -1.836,-0.612 -3.82,0.38 -4.433,2.216 -0.611,1.837 0.381,3.821 2.217,4.433 1.836,0.612 3.82,-0.38 4.433,-2.216 0.203,-0.609 0.214,-1.231 0.092,-1.817 l 6.835,-3.256 -0.907,2.296 16.694,30.718 -26.977,3.587 5.098,-0.678 c 3.378,-1.544 6.83,-3.118 9.849,-4.491 0.637,0.657 1.525,1.067 2.511,1.067 1.936,0 3.505,-1.569 3.505,-3.504 0,-1.935 -1.569,-3.504 -3.505,-3.504 -1.936,0 -3.504,1.569 -3.504,3.504 0,0.226 0.025,0.445 0.066,0.659 -3.988,1.813 -10.292,4.684 -15.698,7.17 L 5.006,66.915 4.259,65.631 21.643,57.838 c 0.827,0.952 2.031,1.568 3.387,1.568 2.485,0 4.506,-2.021 4.506,-4.506 0,-2.484 -2.021,-4.505 -4.506,-4.505 -2.484,0 -4.505,2.021 -4.505,4.505 0,0.406 0.072,0.793 0.172,1.167 l -17.451,7.823 0.602,1.034 -3.001,-5.156 8.188,-4.094 1.531,2.653 8.237,-4.756 -4.005,-6.937 -8.237,4.756 1.47,2.547 -8.193,4.096 -2.377,-4.085 0.522,0.854 1.881,-1.149 c 0.593,0.461 1.329,0.746 2.138,0.746 1.936,0 3.505,-1.568 3.505,-3.504 0,-1.935 -1.569,-3.504 -3.505,-3.504 -1.935,0 -3.504,1.569 -3.504,3.504 0,0.396 0.08,0.769 0.201,1.123 l -1.761,1.075 0.523,0.855 -2.091,-2.681 -14.393,10.308 1.202,-43.876 c 1.086,-0.554 2.279,-1.189 3.447,-1.825 l 1.245,2.154 8.237,-4.755 -2.909,-5.038 -8.652,4.037 1.076,1.863 c -0.831,0.45 -1.634,0.879 -2.381,1.271 l 0.07,-2.557 10.012,-4.672 1.576,-17.965 -0.089,1.021 3.998,-2.399 c 0.635,0.897 1.676,1.488 2.858,1.488 1.936,0 3.505,-1.569 3.505,-3.505 0,-1.935 -1.569,-3.504 -3.505,-3.504 -1.935,0 -3.504,1.569 -3.504,3.504 0,0.023 0.006,0.043 0.007,0.065 l -3.144,1.887 0.629,-7.165 2.989,-1.815 c 0.801,0.731 1.856,1.188 3.023,1.188 0.735,0 1.419,-0.193 2.032,-0.506 2.157,3.251 4.041,6.21 4.31,7.014 0.667,2.002 3.332,-48.404 3.332,-48.404 l 3.492,6.756 -1.769,24.232 c -2.028,0.438 -3.554,2.243 -3.554,4.4 0,2.485 2.021,4.506 4.506,4.506 2.484,0 4.505,-2.021 4.505,-4.506 0,-2.12 -1.476,-3.89 -3.452,-4.368 l 1.524,-20.86 5.346,10.347 -2.085,19.938 c -2.246,0.254 -4.002,2.142 -4.002,4.454 0,2.485 2.02,4.506 4.504,4.506 2.486,0 4.506,-2.021 4.506,-4.506 0,-1.96 -1.266,-3.616 -3.019,-4.233 l 1.77,-16.921 -0.741,-1.434 3.827,7.405 L 23.078,-3.058 5.937,4.711 C 5.297,3.881 4.303,3.336 3.172,3.336 c -1.935,0 -3.504,1.57 -3.504,3.505 0,1.935 1.569,3.504 3.504,3.504 1.935,0 3.504,-1.569 3.504,-3.504 0,-0.087 -0.019,-0.169 -0.025,-0.255 l 18.664,-8.46 -0.925,-0.259 z" />
          </g>
          <g
             transform="translate(160.6571,462.5239)"
             id="g144">
            <path
               inkscape:connector-curvature="0"
               id="path146"
               style="fill:#231f20;fill-opacity:1;fill-rule:nonzero;stroke:none"
               d="M 0,0 C 0,1.38 -1.122,2.503 -2.503,2.503 -3.884,2.503 -5.006,1.38 -5.006,0 c 0,-1.38 1.122,-2.503 2.503,-2.503 C -1.122,-2.503 0,-1.38 0,0" />
          </g>
          <g
             transform="translate(163.995,475.8735)"
             id="g148">
            <path
               inkscape:connector-curvature="0"
               id="path150"
               style="fill:#231f20;fill-opacity:1;fill-rule:nonzero;stroke:none"
               d="M 0,0 C 0,1.38 -1.123,2.503 -2.503,2.503 -3.884,2.503 -5.007,1.38 -5.007,0 c 0,-1.38 1.123,-2.503 2.504,-2.503 C -1.123,-2.503 0,-1.38 0,0" />
          </g>
          <g
             transform="translate(181.3495,484.8843)"
             id="g152">
            <path
               inkscape:connector-curvature="0"
               id="path154"
               style="fill:#231f20;fill-opacity:1;fill-rule:nonzero;stroke:none"
               d="m 0,0 c 0,-1.38 1.122,-2.503 2.503,-2.503 1.38,0 2.503,1.123 2.503,2.503 0,1.38 -1.123,2.503 -2.503,2.503 C 1.122,2.503 0,1.38 0,0" />
          </g>
          <g
             transform="translate(188.8622,467.1963)"
             id="g156">
            <path
               inkscape:connector-curvature="0"
               id="path158"
               style="fill:#231f20;fill-opacity:1;fill-rule:nonzero;stroke:none"
               d="M 0,0 H 9.981 L 8.14,-2.002 H 0 c -0.433,-1.444 -1.757,-2.503 -3.341,-2.503 -1.935,0 -3.505,1.568 -3.505,3.504 0,1.935 1.57,3.504 3.505,3.504 C -1.757,2.503 -0.433,1.444 0,0 m -40.98,-38.55 -2.309,-6.749 c -0.454,-0.154 -0.931,-0.256 -1.436,-0.256 -0.91,0 -1.755,0.275 -2.464,0.742 l -0.888,6.745 c 0.826,0.927 2.015,1.524 3.352,1.524 1.56,0 2.936,-0.798 3.745,-2.006 m 79.683,55.459 c -0.202,-0.106 -0.421,-0.217 -0.652,-0.331 l -11.002,-0.224 -0.021,0.998 c -10e-4,-2.483 -2.021,-4.503 -4.505,-4.503 -2.484,0 -4.505,2.021 -4.505,4.505 0,2.485 2.021,4.506 4.505,4.506 2.484,0 4.503,-2.019 4.505,-4.502 l -0.02,0.998 11.849,0.241 h 10e-4 c -5.45,1.645 -22.508,8.32 -22.508,8.32 l -7.353,1.294 1.346,-0.237 v -5.947 h 3.003 v -9.512 h -8.01 v 9.512 H 8.34 v 6.15 l -12.899,-0.666 0.544,-5.214 -0.994,-0.104 c 2.484,0 4.504,-2.021 4.504,-4.505 0,-2.484 -2.02,-4.505 -4.505,-4.505 -2.484,0 -4.506,2.021 -4.506,4.505 0,2.168 1.54,3.981 3.582,4.409 l -0.072,-0.008 -0.555,5.318 0.092,0.005 -0.877,-0.045 -14.895,-1.176 1.618,-4.007 c 0.032,10e-4 0.061,0.009 0.094,0.009 1.935,0 3.505,-1.568 3.505,-3.504 0,-1.935 -1.57,-3.504 -3.505,-3.504 -1.935,0 -3.504,1.569 -3.504,3.504 0,1.19 0.596,2.238 1.503,2.872 l -1.803,4.465 -2.781,-0.219 -6.366,-4.912 -2.023,-6.218 0.358,1.101 5.442,-3.265 c 0.682,0.416 1.475,0.67 2.333,0.67 2.484,0 4.505,-2.021 4.505,-4.506 0,-2.484 -2.021,-4.505 -4.505,-4.505 -2.484,0 -4.506,2.021 -4.506,4.505 0,0.878 0.263,1.692 0.698,2.386 l -4.602,2.761 -4.763,-14.64 0.536,1.647 5.931,-2.541 c 0.826,0.938 2.022,1.543 3.368,1.543 2.484,0 4.506,-2.021 4.506,-4.505 0,-2.485 -2.022,-4.506 -4.506,-4.506 -2.484,0 -4.505,2.021 -4.505,4.506 0,0.416 0.074,0.811 0.181,1.193 l -5.597,2.399 -2.444,-7.516 6.516,-2.347 -2.715,-7.536 -6.281,2.263 -3.844,-11.818 3.337,-25.364 6.872,20.087 -4.763,1.901 2.968,7.44 8.835,-3.525 -0.973,-2.437 2.224,-0.983 5.728,9.707 -2.057,0.914 c -0.642,-0.748 -1.584,-1.232 -2.648,-1.232 -1.935,0 -3.504,1.569 -3.504,3.504 0,1.936 1.569,3.504 3.504,3.504 1.936,0 3.505,-1.568 3.505,-3.504 0,-0.151 -0.027,-0.296 -0.045,-0.442 l 2.268,-1.008 2.155,3.649 4.915,1.464 -1.84,5.521 c -1.909,0.03 -3.448,1.582 -3.448,3.498 0,1.936 1.568,3.505 3.504,3.505 1.935,0 3.505,-1.569 3.505,-3.505 0,-1.244 -0.655,-2.331 -1.632,-2.953 l 1.831,-5.494 6.589,1.962 c -1.549,5.144 -3.181,10.617 -4.316,14.571 l -2.983,-0.681 -2.116,9.273 7.808,1.782 2.117,-9.273 -2.873,-0.656 c 1.11,-3.833 2.717,-9.233 4.284,-14.443 L 1.999,-8.677 15.815,6.341 H 5.507 C 5.074,4.897 3.75,3.838 2.165,3.838 c -1.935,0 -3.504,1.569 -3.504,3.504 0,1.935 1.569,3.505 3.504,3.505 1.585,0 2.909,-1.059 3.342,-2.503 H 18.22 C 17.674,8.133 17.351,8.01 17.351,8.01 c 0,0 16.014,6.113 21.352,8.899" />
          </g>
          <g
             transform="translate(154.9989,435.4028)"
             id="g160">
            <path
               inkscape:connector-curvature="0"
               id="path162"
               style="fill:#231f20;fill-opacity:1;fill-rule:nonzero;stroke:none"
               d="m 0,0 -1.254,-3.141 -0.332,0.132 0.736,-2.576 2.79,4.728 z" />
          </g>
          <g
             transform="translate(228.7802,485.5034)"
             id="g164">
            <path
               inkscape:connector-curvature="0"
               id="path166"
               style="fill:#231f20;fill-opacity:1;fill-rule:nonzero;stroke:none"
               d="M 0,0 C 0.108,-0.024 0.206,-0.044 0.285,-0.057 0.206,-0.044 0.107,-0.024 0,0" />
          </g>
          <g
             transform="translate(141.6347,426.1465)"
             id="g168">
            <path
               inkscape:connector-curvature="0"
               id="path170"
               style="fill:#231f20;fill-opacity:1;fill-rule:nonzero;stroke:none"
               d="m 0,0 c 0,-1.38 1.122,-2.503 2.503,-2.503 1.38,0 2.503,1.123 2.503,2.503 0,1.38 -1.123,2.503 -2.503,2.503 C 1.122,2.503 0,1.38 0,0" />
          </g>
          <g
             transform="translate(229.2597,485.3281)"
             id="g172">
            <path
               inkscape:connector-curvature="0"
               id="path174"
               style="fill:#231f20;fill-opacity:1;fill-rule:nonzero;stroke:none"
               d="M 0,0 C -0.006,0.017 0,0.038 -0.016,0.052 0,0.038 -0.006,0.018 0,0" />
          </g>
          <g
             transform="translate(228.5761,484.6719)"
             id="g176">
            <path
               inkscape:connector-curvature="0"
               id="path178"
               style="fill:#231f20;fill-opacity:1;fill-rule:nonzero;stroke:none"
               d="M 0,0 C -0.124,-0.077 -0.265,-0.16 -0.418,-0.246 -0.266,-0.16 -0.123,-0.077 0,0" />
          </g>
          <g
             transform="translate(228.9276,484.9072)"
             id="g180">
            <path
               inkscape:connector-curvature="0"
               id="path182"
               style="fill:#231f20;fill-opacity:1;fill-rule:nonzero;stroke:none"
               d="M 0,0 C -0.083,-0.061 -0.184,-0.127 -0.292,-0.197 -0.184,-0.127 -0.082,-0.061 0,0" />
          </g>
          <g
             transform="translate(228.4267,485.5918)"
             id="g184">
            <path
               inkscape:connector-curvature="0"
               id="path186"
               style="fill:#231f20;fill-opacity:1;fill-rule:nonzero;stroke:none"
               d="M 0,0 C 0.074,-0.02 0.143,-0.037 0.209,-0.053 0.144,-0.037 0.074,-0.02 0,0" />
          </g>
          <g
             transform="translate(228.994,484.9614)"
             id="g188">
            <path
               inkscape:connector-curvature="0"
               id="path190"
               style="fill:#231f20;fill-opacity:1;fill-rule:nonzero;stroke:none"
               d="M 0,0 C 0.063,0.05 0.127,0.101 0.17,0.145 0.127,0.101 0.064,0.051 0,0" />
          </g>
          <g
             transform="translate(229.2089,485.1685)"
             id="g192">
            <path
               inkscape:connector-curvature="0"
               id="path194"
               style="fill:#231f20;fill-opacity:1;fill-rule:nonzero;stroke:none"
               d="M 0,0 C 0.025,0.034 0.056,0.069 0.064,0.097 0.056,0.069 0.025,0.034 0,0" />
          </g>
          <g
             transform="translate(208.8827,484.5508)"
             id="g196">
            <path
               inkscape:connector-curvature="0"
               id="path198"
               style="fill:#231f20;fill-opacity:1;fill-rule:nonzero;stroke:none"
               d="m 0,0 c 0,-1.38 1.122,-2.503 2.503,-2.503 1.381,0 2.503,1.123 2.503,2.503 0,1.38 -1.122,2.503 -2.503,2.503 C 1.122,2.503 0,1.38 0,0" />
          </g>
          <g
             transform="translate(228.0243,485.7041)"
             id="g200">
            <path
               inkscape:connector-curvature="0"
               id="path202"
               style="fill:#231f20;fill-opacity:1;fill-rule:nonzero;stroke:none"
               d="M 0,0 C 0.062,-0.018 0.123,-0.036 0.181,-0.052 0.123,-0.036 0.062,-0.018 0,0" />
          </g>
          <g
             transform="translate(227.5692,484.1069)"
             id="g204">
            <path
               inkscape:connector-curvature="0"
               id="path206"
               style="fill:#231f20;fill-opacity:1;fill-rule:nonzero;stroke:none"
               d="M 0,0 C 0.198,0.103 0.382,0.202 0.549,0.296 0.381,0.202 0.198,0.104 0,0" />
          </g>
        </g>
      </g>
    </g>
  </g>
</svg>
